<svg xmlns="http://www.w3.org/2000/svg" width="100" height="100" viewBox="0 0 100 100" fill="none">
  <rect width="100" height="100" rx="20" fill="#06070d"/>
  <mask id="s" maskUnits="userSpaceOnUse" x="0" y="0" width="100" height="100">
    <rect width="100" height="100" fill="white"/>
    <path d="M70 22 C 34 26, 34 44, 50 50 C 66 56, 66 74, 32 78" fill="none" stroke="black" stroke-width="9" stroke-linecap="round" stroke-linejoin="round"/>
  </mask>
  <g fill="#ffffff" mask="url(#s)">
    <path d="M6 28 L18 20 L82 20 L94 28 L82 36 L18 36 Z"/>
    <path d="M6 50 L18 42 L82 42 L94 50 L82 58 L18 58 Z"/>
    <path d="M6 72 L18 64 L82 64 L94 72 L82 80 L18 80 Z"/>
  </g>
</svg>
